# Blender v2.82 (sub 7) OBJ File: 'powerup.blend'
# www.blender.org
mtllib heal.mtl
o Heal_Plane.011
v -0.002745 -0.010815 -0.000000
v -0.002745 -0.004293 -0.000000
v -0.009232 -0.004293 -0.000000
v -0.008023 -0.003106 -0.000000
v -0.001846 -0.003136 -0.000000
v -0.001846 -0.009881 -0.000000
v -0.000792 -0.004247 -0.000000
v -0.000792 -0.002365 -0.000000
v -0.002664 -0.002365 -0.000000
v 0.002745 -0.010815 -0.000000
v 0.002745 -0.004293 -0.000000
v 0.009232 -0.004293 -0.000000
v 0.000000 -0.010815 -0.000000
v 0.008023 -0.003106 -0.000000
v 0.001846 -0.003136 -0.000000
v 0.001846 -0.009881 -0.000000
v 0.000000 -0.009881 -0.000000
v 0.000792 -0.004247 -0.000000
v 0.000792 -0.002365 -0.000000
v 0.002664 -0.002365 -0.000000
v 0.000000 -0.004247 -0.000000
v -0.002745 0.007650 0.000000
v -0.002745 0.001128 0.000000
v -0.009232 0.001128 0.000000
v -0.008023 -0.000058 0.000000
v -0.001846 -0.000029 -0.000000
v -0.001846 0.006717 0.000000
v -0.008023 -0.001582 -0.000000
v -0.009232 -0.001582 -0.000000
v -0.000792 0.001082 0.000000
v -0.000792 -0.000800 0.000000
v -0.002664 -0.000800 0.000000
v -0.002664 -0.001582 -0.000000
v 0.002745 0.007650 0.000000
v 0.002745 0.001128 0.000000
v 0.009232 0.001128 0.000000
v 0.000000 0.007650 0.000000
v 0.008023 -0.000058 0.000000
v 0.001846 -0.000029 -0.000000
v 0.001846 0.006717 0.000000
v 0.000000 0.006717 0.000000
v 0.008023 -0.001582 -0.000000
v 0.009232 -0.001582 -0.000000
v 0.000792 0.001082 0.000000
v 0.000792 -0.000800 0.000000
v 0.002664 -0.000800 0.000000
v 0.000000 0.001082 0.000000
v 0.000000 -0.001582 -0.000000
v 0.002664 -0.001582 -0.000000
vt 0.109599 0.197830
vt 0.000000 0.290857
vt 0.616646 0.306213
vt 0.153481 0.002197
vt 0.065240 0.000000
vt 0.462458 0.993620
vt 0.603332 0.868386
vt 0.718663 1.000000
vt 0.821542 0.198936
vt 0.747380 0.283110
vt 1.000000 0.283110
vt 0.821542 0.000000
vt 0.747396 0.000000
vt 0.109599 0.197830
vt 0.747380 0.213713
vt 0.616646 0.306213
vt 0.603332 0.868386
vt 0.747380 0.871973
vt 0.718663 1.000000
vt 0.821542 0.198936
vt 0.821542 0.000000
vt 0.747396 0.000000
vt 0.109599 0.197830
vt 0.747380 0.213713
vt 0.616646 0.306213
vt 0.065240 0.000000
vt 0.153481 0.002197
vt 0.603332 0.868386
vt 0.747380 0.871973
vt 1.000000 0.283110
vt 0.821542 0.198936
vt 0.821542 0.000000
vt 0.109599 0.197830
vt 0.000000 0.290857
vt 0.616646 0.306213
vt 0.462458 0.993620
vt 0.603332 0.868386
vt 0.821542 0.198936
vt 0.821542 0.000000
vt 0.747380 0.213713
vt 1.000000 0.198936
vt 0.000000 0.290857
vt 0.462458 0.993620
vt 1.000000 0.198936
vt 0.000000 0.290857
vt 0.462458 0.993620
vt 1.000000 0.198936
vt 0.747380 0.213713
vt 1.000000 0.198936
vn -0.0000 0.0000 -1.0000
usemtl Material.002
s off
f 6/1/1 1/2/1 2/3/1
f 6/1/1 17/4/1 13/5/1
f 2/3/1 3/6/1 4/7/1
f 4/7/1 3/6/1 29/8/1
f 8/9/1 48/10/1 21/11/1
f 8/9/1 9/12/1 48/10/1
f 48/10/1 9/12/1 33/13/1
f 16/14/1 15/15/1 11/16/1
f 13/5/1 17/4/1 16/14/1
f 11/16/1 15/15/1 14/17/1
f 14/17/1 42/18/1 43/19/1
f 21/11/1 48/10/1 19/20/1
f 19/20/1 48/10/1 20/21/1
f 48/10/1 49/22/1 20/21/1
f 27/23/1 26/24/1 23/25/1
f 37/26/1 41/27/1 27/23/1
f 23/25/1 26/24/1 25/28/1
f 25/28/1 28/29/1 29/8/1
f 47/30/1 48/10/1 31/31/1
f 31/31/1 48/10/1 32/32/1
f 48/10/1 33/13/1 32/32/1
f 40/33/1 34/34/1 35/35/1
f 40/33/1 41/27/1 37/26/1
f 35/35/1 36/36/1 38/37/1
f 38/37/1 36/36/1 43/19/1
f 45/38/1 48/10/1 47/30/1
f 45/38/1 46/39/1 48/10/1
f 48/10/1 46/39/1 49/22/1
f 6/1/1 2/3/1 5/40/1
f 6/1/1 13/5/1 1/2/1
f 2/3/1 4/7/1 5/40/1
f 4/7/1 29/8/1 28/29/1
f 8/9/1 21/11/1 7/41/1
f 16/14/1 11/16/1 10/42/1
f 13/5/1 16/14/1 10/42/1
f 11/16/1 14/17/1 12/43/1
f 14/17/1 43/19/1 12/43/1
f 21/11/1 19/20/1 18/44/1
f 27/23/1 23/25/1 22/45/1
f 37/26/1 27/23/1 22/45/1
f 23/25/1 25/28/1 24/46/1
f 25/28/1 29/8/1 24/46/1
f 47/30/1 31/31/1 30/47/1
f 40/33/1 35/35/1 39/48/1
f 40/33/1 37/26/1 34/34/1
f 35/35/1 38/37/1 39/48/1
f 38/37/1 43/19/1 42/18/1
f 45/38/1 47/30/1 44/49/1
