# Blender v2.82 (sub 7) OBJ File: 'Driod.blend'
# www.blender.org
mtllib LBoomside.mtl
o Circle_Circle.002
v -0.000000 0.094097 0.000000
v -0.018357 0.092289 0.000000
v -0.036009 0.086934 0.000000
v -0.052277 0.078239 0.000000
v -0.066537 0.066537 0.000000
v -0.078239 0.052277 0.000000
v -0.086934 0.036009 0.000000
v -0.092289 0.018357 0.000000
v -0.094097 0.000000 0.000000
v -0.092289 -0.018357 0.000000
v -0.086934 -0.036009 0.000000
v -0.078239 -0.052277 0.000000
v -0.066537 -0.066537 0.000000
v -0.052277 -0.078239 0.000000
v -0.036009 -0.086934 0.000000
v -0.018357 -0.092289 0.000000
v 0.000000 -0.094097 0.000000
v 0.018357 -0.092289 0.000000
v 0.036009 -0.086934 0.000000
v 0.052277 -0.078239 0.000000
v 0.066537 -0.066537 0.000000
v 0.078239 -0.052277 0.000000
v 0.086934 -0.036009 0.000000
v 0.092289 -0.018357 0.000000
v 0.094097 0.000000 0.000000
v 0.092289 0.018357 0.000000
v 0.086934 0.036009 0.000000
v 0.078239 0.052278 0.000000
v 0.066536 0.066537 0.000000
v 0.052277 0.078239 0.000000
v 0.036009 0.086934 0.000000
v 0.018357 0.092289 0.000000
v -0.000000 0.091167 -0.001971
v -0.017786 0.089416 -0.001971
v -0.034888 0.084228 -0.001971
v -0.050650 0.075803 -0.001971
v -0.064465 0.064465 -0.001971
v -0.075803 0.050650 -0.001971
v -0.084228 0.034888 -0.001971
v -0.089416 0.017786 -0.001971
v -0.091167 0.000000 -0.001971
v -0.089416 -0.017786 -0.001971
v -0.084228 -0.034888 -0.001971
v -0.075803 -0.050650 -0.001971
v -0.064465 -0.064465 -0.001971
v -0.050650 -0.075803 -0.001971
v -0.034888 -0.084228 -0.001971
v -0.017786 -0.089416 -0.001971
v 0.000000 -0.091167 -0.001971
v 0.017786 -0.089416 -0.001971
v 0.034888 -0.084228 -0.001971
v 0.050650 -0.075803 -0.001971
v 0.064465 -0.064465 -0.001971
v 0.075803 -0.050650 -0.001971
v 0.084228 -0.034888 -0.001971
v 0.089416 -0.017786 -0.001971
v 0.091167 0.000000 -0.001971
v 0.089416 0.017786 -0.001971
v 0.084228 0.034888 -0.001971
v 0.075803 0.050650 -0.001971
v 0.064465 0.064465 -0.001971
v 0.050650 0.075803 -0.001971
v 0.034888 0.084228 -0.001971
v 0.017786 0.089416 -0.001971
v -0.000000 0.091553 0.001166
v -0.017861 0.089794 0.001166
v -0.035036 0.084584 0.001166
v -0.050864 0.076123 0.001166
v -0.064738 0.064738 0.001166
v -0.076123 0.050864 0.001166
v -0.084584 0.035036 0.001166
v -0.089794 0.017861 0.001166
v -0.091553 0.000000 0.001166
v -0.089794 -0.017861 0.001166
v -0.084584 -0.035036 0.001166
v -0.076123 -0.050864 0.001166
v -0.064738 -0.064738 0.001166
v -0.050864 -0.076123 0.001166
v -0.035036 -0.084584 0.001166
v -0.017861 -0.089794 0.001166
v 0.000000 -0.091553 0.001166
v 0.017861 -0.089794 0.001166
v 0.035036 -0.084584 0.001166
v 0.050864 -0.076123 0.001166
v 0.064738 -0.064738 0.001166
v 0.076123 -0.050864 0.001166
v 0.084584 -0.035036 0.001166
v 0.089794 -0.017861 0.001166
v 0.091553 0.000000 0.001166
v 0.089794 0.017861 0.001166
v 0.084584 0.035036 0.001166
v 0.076123 0.050864 0.001166
v 0.064738 0.064738 0.001166
v 0.050864 0.076123 0.001166
v 0.035036 0.084584 0.001166
v 0.017861 0.089794 0.001166
v -0.000000 0.088503 -0.000748
v -0.017266 0.086803 -0.000748
v -0.033869 0.081766 -0.000748
v -0.049170 0.073588 -0.000748
v -0.062581 0.062581 -0.000748
v -0.073588 0.049170 -0.000748
v -0.081766 0.033869 -0.000748
v -0.086803 0.017266 -0.000748
v -0.088503 0.000000 -0.000748
v -0.086803 -0.017266 -0.000748
v -0.081766 -0.033869 -0.000748
v -0.073588 -0.049170 -0.000748
v -0.062581 -0.062581 -0.000748
v -0.049170 -0.073588 -0.000748
v -0.033869 -0.081766 -0.000748
v -0.017266 -0.086803 -0.000748
v 0.000000 -0.088503 -0.000748
v 0.017266 -0.086803 -0.000748
v 0.033869 -0.081766 -0.000748
v 0.049170 -0.073588 -0.000748
v 0.062581 -0.062581 -0.000748
v 0.073588 -0.049170 -0.000748
v 0.081766 -0.033869 -0.000748
v 0.086803 -0.017266 -0.000748
v 0.088503 0.000000 -0.000748
v 0.086803 0.017266 -0.000748
v 0.081766 0.033869 -0.000748
v 0.073588 0.049170 -0.000748
v 0.062581 0.062581 -0.000748
v 0.049170 0.073588 -0.000748
v 0.033869 0.081766 -0.000748
v 0.017266 0.086803 -0.000748
vt 0.568174 0.808809
vt 0.594409 0.888376
vt 0.559908 0.818732
vt 0.868256 0.070701
vt 0.824555 0.019215
vt 0.869633 0.056906
vt 0.541911 0.729466
vt 0.532801 0.736839
vt 0.907561 0.123716
vt 0.910201 0.111624
vt 0.523821 0.641305
vt 0.514129 0.645845
vt 0.944702 0.181268
vt 0.514598 0.547713
vt 0.504610 0.549246
vt 0.967252 0.729464
vt 0.990481 0.645844
vt 0.971810 0.736838
vt 0.971809 0.263161
vt 0.940988 0.191192
vt 0.504610 0.450755
vt 0.940989 0.808807
vt 0.944703 0.818731
vt 0.990481 0.354155
vt 0.967251 0.270535
vt 0.523820 0.358697
vt 0.514129 0.354156
vt 0.907562 0.876283
vt 0.910202 0.888375
vt 0.994564 0.452287
vt 1.000000 0.450754
vt 0.541911 0.270535
vt 0.532801 0.263162
vt 0.868256 0.929299
vt 0.869633 0.943094
vt 0.994564 0.547712
vt 1.000000 0.549246
vt 0.568174 0.191192
vt 0.559908 0.181269
vt 0.824556 0.980785
vt 0.985342 0.641303
vt 0.594409 0.111625
vt 0.778218 0.984433
vt 0.776701 1.000000
vt 0.634977 0.056906
vt 0.601601 0.123716
vt 0.730945 0.984433
vt 0.727910 1.000000
vt 0.684580 0.034183
vt 0.680055 0.019215
vt 0.684581 0.965817
vt 0.680056 0.980785
vt 0.730945 0.015567
vt 0.727909 0.000000
vt 0.640907 0.929299
vt 0.634978 0.943095
vt 0.776701 0.000000
vt 0.601601 0.876284
vt 0.824582 0.034183
vt 0.094613 0.122125
vt 0.068751 0.200215
vt 0.060420 0.189886
vt 0.367379 0.931114
vt 0.322298 0.952205
vt 0.365486 0.916754
vt 0.042781 0.277240
vt 0.033555 0.269564
vt 0.404353 0.865288
vt 0.407586 0.877875
vt 0.024892 0.362825
vt 0.015050 0.358098
vt 0.441779 0.810114
vt 0.437407 0.799784
vt 0.005616 0.452085
vt 0.015772 0.453681
vt 0.487149 0.358099
vt 0.463377 0.277241
vt 0.468644 0.269565
vt 0.468644 0.730435
vt 0.463377 0.722760
vt 0.005616 0.547914
vt 0.015772 0.546318
vt 0.437407 0.200216
vt 0.441779 0.189887
vt 0.481266 0.637175
vt 0.487149 0.641901
vt 0.024892 0.637174
vt 0.015049 0.641901
vt 0.404353 0.134712
vt 0.407586 0.122126
vt 0.490386 0.546318
vt 0.496583 0.547914
vt 0.033554 0.730435
vt 0.042780 0.722759
vt 0.365486 0.083246
vt 0.367380 0.068886
vt 0.490386 0.453682
vt 0.496583 0.452086
vt 0.068751 0.799784
vt 0.060420 0.810113
vt 0.322704 0.032214
vt 0.322299 0.047796
vt 0.481266 0.362826
vt 0.101804 0.865288
vt 0.094612 0.877874
vt 0.275278 0.013519
vt 0.276452 0.029723
vt 0.134819 0.931114
vt 0.140672 0.916754
vt 0.229707 0.029723
vt 0.226922 0.013519
vt 0.183859 0.952204
vt 0.179494 0.967786
vt 0.183859 0.047795
vt 0.179495 0.032214
vt 0.229706 0.970277
vt 0.226921 0.986481
vt 0.140672 0.083246
vt 0.134819 0.068885
vt 0.275277 0.986481
vt 0.276451 0.970277
vt 0.101805 0.134712
vt 0.322704 0.967786
vt 0.227456 0.000000
vt 0.178711 0.019215
vt 0.985342 0.358696
vt 0.959624 0.277240
vt 0.934129 0.799783
vt 0.132794 0.056905
vt 0.977186 0.362825
vt 0.863522 0.916754
vt 0.901679 0.865287
vt 0.091470 0.111624
vt 0.986139 0.453682
vt 0.824582 0.965816
vt 0.056327 0.181268
vt 0.986139 0.546318
vt 0.821124 0.952204
vt 0.028715 0.263161
vt 0.776115 0.970277
vt 0.009696 0.354155
vt 0.730223 0.970277
vt 0.000000 0.450754
vt 0.642816 0.916754
vt 0.685214 0.952205
vt 0.000000 0.549245
vt 0.009696 0.645844
vt 0.572209 0.799785
vt 0.604659 0.865288
vt 0.028715 0.736838
vt 0.546713 0.722760
vt 0.056327 0.818731
vt 0.091470 0.888375
vt 0.520198 0.546319
vt 0.529151 0.637175
vt 0.132794 0.943094
vt 0.514598 0.452288
vt 0.178710 0.980785
vt 0.529151 0.362826
vt 0.520198 0.453682
vt 0.227455 1.000000
vt 0.277155 1.000000
vt 0.546713 0.277241
vt 0.325900 0.980785
vt 0.604658 0.134712
vt 0.572209 0.200216
vt 0.371816 0.943094
vt 0.642816 0.083246
vt 0.413140 0.888375
vt 0.640906 0.070701
vt 0.448283 0.818732
vt 0.475895 0.263162
vt 0.685213 0.047795
vt 0.475895 0.736839
vt 0.448284 0.181269
vt 0.778217 0.015567
vt 0.730223 0.029723
vt 0.494914 0.645845
vt 0.413141 0.111625
vt 0.776114 0.029723
vt 0.504610 0.549246
vt 0.371817 0.056906
vt 0.821123 0.047795
vt 0.504610 0.450754
vt 0.325900 0.019215
vt 0.863521 0.083246
vt 0.494915 0.354156
vt 0.277155 0.000000
vt 0.901679 0.134712
vt 0.977186 0.637174
vt 0.934129 0.200216
vt 0.959625 0.722759
vn 0.4940 0.2640 0.8284
vn -0.5574 -0.0549 0.8284
vn 0.4330 0.3553 0.8284
vn -0.5360 -0.1626 0.8284
vn 0.3553 0.4330 0.8284
vn -0.4940 -0.2640 0.8284
vn 0.2640 0.4940 0.8284
vn 0.0549 -0.5574 0.8284
vn -0.4330 -0.3553 0.8284
vn 0.1626 0.5360 0.8284
vn 0.1626 -0.5360 0.8284
vn -0.3553 -0.4330 0.8284
vn 0.0549 0.5574 0.8284
vn 0.2640 -0.4940 0.8284
vn -0.2640 -0.4940 0.8284
vn -0.0549 0.5574 0.8284
vn 0.3553 -0.4330 0.8284
vn -0.1626 -0.5360 0.8284
vn -0.1626 0.5360 0.8284
vn 0.4330 -0.3553 0.8284
vn -0.0549 -0.5574 0.8284
vn -0.2640 0.4940 0.8284
vn 0.4940 -0.2640 0.8284
vn -0.3553 0.4330 0.8284
vn 0.5360 -0.1626 0.8284
vn -0.4330 0.3553 0.8284
vn 0.5574 -0.0549 0.8284
vn -0.4940 0.2640 0.8284
vn 0.5574 0.0549 0.8284
vn -0.5360 0.1626 0.8284
vn 0.5360 0.1626 0.8284
vn -0.5574 0.0549 0.8284
vn -0.4704 -0.2514 -0.8459
vn 0.5308 0.0523 -0.8459
vn -0.4123 -0.3384 -0.8459
vn 0.5104 0.1548 -0.8459
vn -0.3384 -0.4123 -0.8459
vn 0.4704 0.2514 -0.8459
vn -0.2514 -0.4704 -0.8459
vn -0.0523 0.5308 -0.8459
vn 0.4123 0.3384 -0.8459
vn -0.1548 -0.5104 -0.8459
vn -0.1548 0.5104 -0.8459
vn 0.3384 0.4123 -0.8459
vn -0.0523 -0.5308 -0.8459
vn -0.2514 0.4704 -0.8459
vn 0.2514 0.4704 -0.8459
vn 0.0523 -0.5308 -0.8459
vn -0.3384 0.4123 -0.8459
vn 0.1548 0.5104 -0.8459
vn 0.1548 -0.5104 -0.8459
vn -0.4123 0.3384 -0.8459
vn 0.0523 0.5308 -0.8459
vn 0.2514 -0.4704 -0.8459
vn -0.4704 0.2514 -0.8459
vn 0.3384 -0.4123 -0.8459
vn -0.5104 0.1548 -0.8459
vn 0.4123 -0.3384 -0.8459
vn -0.5308 0.0523 -0.8459
vn 0.4704 -0.2514 -0.8459
vn -0.5308 -0.0523 -0.8459
vn 0.5104 -0.1548 -0.8459
vn -0.5104 -0.1548 -0.8459
vn 0.5308 -0.0523 -0.8459
vn 0.4162 -0.0410 -0.9083
vn 0.2658 0.3239 0.9080
vn -0.1975 0.3695 0.9080
vn 0.4162 0.0410 -0.9083
vn 0.1975 0.3695 0.9080
vn -0.2658 0.3239 0.9080
vn 0.4002 0.1214 -0.9083
vn 0.1216 0.4009 0.9080
vn -0.3239 0.2658 0.9080
vn 0.3689 0.1972 -0.9083
vn 0.0411 0.4170 0.9080
vn -0.3695 0.1975 0.9080
vn 0.3233 0.2653 -0.9083
vn -0.4009 0.1216 0.9080
vn 0.2653 0.3233 -0.9083
vn -0.4170 0.0411 0.9080
vn 0.1972 0.3689 -0.9083
vn -0.4170 -0.0411 0.9080
vn 0.1214 0.4002 -0.9083
vn -0.4009 -0.1216 0.9080
vn 0.0410 0.4162 -0.9083
vn -0.3695 -0.1975 0.9080
vn -0.0410 0.4162 -0.9083
vn -0.3239 -0.2658 0.9080
vn -0.1214 0.4002 -0.9083
vn -0.2658 -0.3239 0.9080
vn -0.1972 0.3689 -0.9083
vn -0.1975 -0.3695 0.9080
vn -0.2653 0.3233 -0.9083
vn -0.1216 -0.4009 0.9080
vn -0.3233 0.2653 -0.9083
vn -0.0411 -0.4170 0.9080
vn -0.3689 0.1972 -0.9083
vn 0.0411 -0.4170 0.9080
vn -0.4002 0.1214 -0.9083
vn 0.1216 -0.4009 0.9080
vn -0.4162 0.0410 -0.9083
vn 0.1975 -0.3695 0.9080
vn -0.4162 -0.0410 -0.9083
vn 0.2658 -0.3239 0.9080
vn -0.4002 -0.1214 -0.9083
vn 0.3239 -0.2658 0.9080
vn -0.3689 -0.1972 -0.9083
vn 0.0410 -0.4162 -0.9083
vn 0.3695 -0.1975 0.9080
vn -0.3233 -0.2653 -0.9083
vn 0.1214 -0.4002 -0.9083
vn 0.4009 -0.1216 0.9080
vn -0.2653 -0.3233 -0.9083
vn 0.1972 -0.3689 -0.9083
vn 0.4170 -0.0411 0.9080
vn -0.1972 -0.3689 -0.9083
vn 0.2653 -0.3233 -0.9083
vn 0.4170 0.0411 0.9080
vn -0.1214 -0.4002 -0.9083
vn 0.3233 -0.2653 -0.9083
vn 0.4009 0.1216 0.9080
vn -0.0410 -0.4162 -0.9083
vn 0.3689 -0.1972 -0.9083
vn 0.3695 0.1975 0.9080
vn -0.0411 0.4170 0.9080
vn 0.4002 -0.1214 -0.9083
vn 0.3239 0.2658 0.9080
vn -0.1216 0.4009 0.9080
usemtl Material.015
s off
f 44/1/1 11/2/1 12/3/1
f 58/4/2 25/5/2 26/6/2
f 45/7/3 12/3/3 13/8/3
f 59/9/4 26/6/4 27/10/4
f 46/11/5 13/8/5 14/12/5
f 28/13/6 59/9/6 27/10/6
f 47/14/7 14/12/7 15/15/7
f 34/16/8 1/17/8 2/18/8
f 29/19/9 60/20/9 28/13/9
f 16/21/10 47/14/10 15/15/10
f 35/22/11 2/18/11 3/23/11
f 30/24/12 61/25/12 29/19/12
f 49/26/13 16/21/13 17/27/13
f 36/28/14 3/23/14 4/29/14
f 63/30/15 30/24/15 31/31/15
f 50/32/16 17/27/16 18/33/16
f 37/34/17 4/29/17 5/35/17
f 64/36/18 31/31/18 32/37/18
f 51/38/19 18/33/19 19/39/19
f 6/40/20 37/34/20 5/35/20
f 33/41/21 32/37/21 1/17/21
f 20/42/22 51/38/22 19/39/22
f 39/43/23 6/40/23 7/44/23
f 21/45/24 52/46/24 20/42/24
f 40/47/25 7/44/25 8/48/25
f 54/49/26 21/45/26 22/50/26
f 41/51/27 8/48/27 9/52/27
f 55/53/28 22/50/28 23/54/28
f 42/55/29 9/52/29 10/56/29
f 24/57/30 55/53/30 23/54/30
f 43/58/31 10/56/31 11/2/31
f 57/59/32 24/57/32 25/5/32
f 75/60/33 108/61/33 76/62/33
f 90/63/34 121/64/34 122/65/34
f 76/62/35 109/66/35 77/67/35
f 90/63/36 123/68/36 91/69/36
f 77/67/37 110/70/37 78/71/37
f 92/72/38 123/68/38 124/73/38
f 79/74/39 110/70/39 111/75/39
f 65/76/40 98/77/40 66/78/40
f 93/79/41 124/73/41 125/80/41
f 80/81/42 111/75/42 112/82/42
f 66/78/43 99/83/43 67/84/43
f 93/79/44 126/85/44 94/86/44
f 80/81/45 113/87/45 81/88/45
f 67/84/46 100/89/46 68/90/46
f 94/86/47 127/91/47 95/92/47
f 82/93/48 113/87/48 114/94/48
f 68/90/49 101/95/49 69/96/49
f 95/92/50 128/97/50 96/98/50
f 82/93/51 115/99/51 83/100/51
f 70/101/52 101/95/52 102/102/52
f 65/76/53 128/97/53 97/103/53
f 83/100/54 116/104/54 84/105/54
f 71/106/55 102/102/55 103/107/55
f 85/108/56 116/104/56 117/109/56
f 71/106/57 104/110/57 72/111/57
f 85/108/58 118/112/58 86/113/58
f 72/111/59 105/114/59 73/115/59
f 86/113/60 119/116/60 87/117/60
f 73/115/61 106/118/61 74/119/61
f 88/120/62 119/116/62 120/121/62
f 74/119/63 107/122/63 75/60/63
f 88/120/64 121/64/64 89/123/64
f 8/124/65 73/115/65 9/125/65
f 62/126/66 125/127/66 61/25/66
f 36/28/67 99/128/67 35/22/67
f 9/125/68 74/119/68 10/129/68
f 63/30/69 126/130/69 62/126/69
f 36/28/70 101/131/70 100/132/70
f 10/129/71 75/60/71 11/133/71
f 64/36/72 127/134/72 63/30/72
f 38/135/73 101/131/73 37/34/73
f 11/133/74 76/62/74 12/136/74
f 33/41/75 128/137/75 64/36/75
f 39/43/76 102/138/76 38/135/76
f 12/136/77 77/67/77 13/139/77
f 40/47/78 103/140/78 39/43/78
f 13/139/79 78/71/79 14/141/79
f 41/51/80 104/142/80 40/47/80
f 14/141/81 79/74/81 15/143/81
f 41/51/82 106/144/82 105/145/82
f 15/143/83 80/81/83 16/146/83
f 43/58/84 106/144/84 42/55/84
f 16/146/85 81/88/85 17/147/85
f 43/58/86 108/148/86 107/149/86
f 18/150/87 81/88/87 82/93/87
f 44/1/88 109/151/88 108/148/88
f 18/150/89 83/100/89 19/152/89
f 46/11/90 109/151/90 45/7/90
f 19/152/91 84/105/91 20/153/91
f 46/11/92 111/154/92 110/155/92
f 20/153/93 85/108/93 21/156/93
f 48/157/94 111/154/94 47/14/94
f 21/156/95 86/113/95 22/158/95
f 48/157/96 113/159/96 112/160/96
f 22/158/97 87/117/97 23/161/97
f 50/32/98 113/159/98 49/26/98
f 23/161/99 88/120/99 24/162/99
f 51/38/100 114/163/100 50/32/100
f 24/162/101 89/123/101 25/164/101
f 51/38/102 116/165/102 115/166/102
f 25/164/103 90/63/103 26/167/103
f 52/46/104 117/168/104 116/165/104
f 26/167/105 91/69/105 27/169/105
f 54/49/106 117/168/106 53/170/106
f 27/169/107 92/72/107 28/171/107
f 2/172/108 65/76/108 66/78/108
f 55/53/109 118/173/109 54/49/109
f 28/171/110 93/79/110 29/174/110
f 2/172/111 67/84/111 3/175/111
f 56/176/112 119/177/112 55/53/112
f 29/174/113 94/86/113 30/178/113
f 4/179/114 67/84/114 68/90/114
f 57/59/115 120/180/115 56/176/115
f 31/181/116 94/86/116 95/92/116
f 4/179/117 69/96/117 5/182/117
f 58/4/118 121/183/118 57/59/118
f 32/184/119 95/92/119 96/98/119
f 5/182/120 70/101/120 6/185/120
f 59/9/121 122/186/121 58/4/121
f 32/184/122 65/76/122 1/187/122
f 6/185/123 71/106/123 7/188/123
f 60/20/124 123/189/124 59/9/124
f 34/16/125 97/190/125 33/41/125
f 7/188/126 72/111/126 8/124/126
f 61/25/127 124/191/127 60/20/127
f 34/16/128 99/128/128 98/192/128
f 44/1/1 43/58/1 11/2/1
f 58/4/2 57/59/2 25/5/2
f 45/7/3 44/1/3 12/3/3
f 59/9/4 58/4/4 26/6/4
f 46/11/5 45/7/5 13/8/5
f 28/13/6 60/20/6 59/9/6
f 47/14/7 46/11/7 14/12/7
f 34/16/8 33/41/8 1/17/8
f 29/19/9 61/25/9 60/20/9
f 16/21/10 48/157/10 47/14/10
f 35/22/11 34/16/11 2/18/11
f 30/24/12 62/126/12 61/25/12
f 49/26/13 48/157/13 16/21/13
f 36/28/14 35/22/14 3/23/14
f 63/30/15 62/126/15 30/24/15
f 50/32/16 49/26/16 17/27/16
f 37/34/17 36/28/17 4/29/17
f 64/36/18 63/30/18 31/31/18
f 51/38/19 50/32/19 18/33/19
f 6/40/20 38/135/20 37/34/20
f 33/41/21 64/36/21 32/37/21
f 20/42/22 52/46/22 51/38/22
f 39/43/23 38/135/23 6/40/23
f 21/45/24 53/170/24 52/46/24
f 40/47/25 39/43/25 7/44/25
f 54/49/26 53/170/26 21/45/26
f 41/51/27 40/47/27 8/48/27
f 55/53/28 54/49/28 22/50/28
f 42/55/29 41/51/29 9/52/29
f 24/57/30 56/176/30 55/53/30
f 43/58/31 42/55/31 10/56/31
f 57/59/32 56/176/32 24/57/32
f 75/60/33 107/122/33 108/61/33
f 90/63/34 89/123/34 121/64/34
f 76/62/35 108/61/35 109/66/35
f 90/63/36 122/65/36 123/68/36
f 77/67/37 109/66/37 110/70/37
f 92/72/38 91/69/38 123/68/38
f 79/74/39 78/71/39 110/70/39
f 65/76/40 97/103/40 98/77/40
f 93/79/41 92/72/41 124/73/41
f 80/81/42 79/74/42 111/75/42
f 66/78/43 98/77/43 99/83/43
f 93/79/44 125/80/44 126/85/44
f 80/81/45 112/82/45 113/87/45
f 67/84/46 99/83/46 100/89/46
f 94/86/47 126/85/47 127/91/47
f 82/93/48 81/88/48 113/87/48
f 68/90/49 100/89/49 101/95/49
f 95/92/50 127/91/50 128/97/50
f 82/93/51 114/94/51 115/99/51
f 70/101/52 69/96/52 101/95/52
f 65/76/53 96/98/53 128/97/53
f 83/100/54 115/99/54 116/104/54
f 71/106/55 70/101/55 102/102/55
f 85/108/56 84/105/56 116/104/56
f 71/106/57 103/107/57 104/110/57
f 85/108/58 117/109/58 118/112/58
f 72/111/59 104/110/59 105/114/59
f 86/113/60 118/112/60 119/116/60
f 73/115/61 105/114/61 106/118/61
f 88/120/62 87/117/62 119/116/62
f 74/119/63 106/118/63 107/122/63
f 88/120/64 120/121/64 121/64/64
f 8/124/65 72/111/65 73/115/65
f 62/126/66 126/130/66 125/127/66
f 36/28/67 100/132/67 99/128/67
f 9/125/68 73/115/68 74/119/68
f 63/30/69 127/134/69 126/130/69
f 36/28/70 37/34/70 101/131/70
f 10/129/71 74/119/71 75/60/71
f 64/36/72 128/137/72 127/134/72
f 38/135/73 102/138/73 101/131/73
f 11/133/74 75/60/74 76/62/74
f 33/41/75 97/190/75 128/137/75
f 39/43/76 103/140/76 102/138/76
f 12/136/77 76/62/77 77/67/77
f 40/47/78 104/142/78 103/140/78
f 13/139/79 77/67/79 78/71/79
f 41/51/80 105/145/80 104/142/80
f 14/141/81 78/71/81 79/74/81
f 41/51/82 42/55/82 106/144/82
f 15/143/83 79/74/83 80/81/83
f 43/58/84 107/149/84 106/144/84
f 16/146/85 80/81/85 81/88/85
f 43/58/86 44/1/86 108/148/86
f 18/150/87 17/147/87 81/88/87
f 44/1/88 45/7/88 109/151/88
f 18/150/89 82/93/89 83/100/89
f 46/11/90 110/155/90 109/151/90
f 19/152/91 83/100/91 84/105/91
f 46/11/92 47/14/92 111/154/92
f 20/153/93 84/105/93 85/108/93
f 48/157/94 112/160/94 111/154/94
f 21/156/95 85/108/95 86/113/95
f 48/157/96 49/26/96 113/159/96
f 22/158/97 86/113/97 87/117/97
f 50/32/98 114/163/98 113/159/98
f 23/161/99 87/117/99 88/120/99
f 51/38/100 115/166/100 114/163/100
f 24/162/101 88/120/101 89/123/101
f 51/38/102 52/46/102 116/165/102
f 25/164/103 89/123/103 90/63/103
f 52/46/104 53/170/104 117/168/104
f 26/167/105 90/63/105 91/69/105
f 54/49/106 118/173/106 117/168/106
f 27/169/107 91/69/107 92/72/107
f 2/172/108 1/187/108 65/76/108
f 55/53/109 119/177/109 118/173/109
f 28/171/110 92/72/110 93/79/110
f 2/172/111 66/78/111 67/84/111
f 56/176/112 120/180/112 119/177/112
f 29/174/113 93/79/113 94/86/113
f 4/179/114 3/175/114 67/84/114
f 57/59/115 121/183/115 120/180/115
f 31/181/116 30/178/116 94/86/116
f 4/179/117 68/90/117 69/96/117
f 58/4/118 122/186/118 121/183/118
f 32/184/119 31/181/119 95/92/119
f 5/182/120 69/96/120 70/101/120
f 59/9/121 123/189/121 122/186/121
f 32/184/122 96/98/122 65/76/122
f 6/185/123 70/101/123 71/106/123
f 60/20/124 124/191/124 123/189/124
f 34/16/125 98/192/125 97/190/125
f 7/188/126 71/106/126 72/111/126
f 61/25/127 125/127/127 124/191/127
f 34/16/128 35/22/128 99/128/128
