# Blender v2.82 (sub 7) OBJ File: ''
# www.blender.org
mtllib lvl_warn.mtl
o Plane
v -0.171813 0.541230 0.000000
v -0.118140 0.562246 -0.000000
v -0.170279 0.481993 0.000000
v -0.123763 0.612794 -0.000000
v -0.170873 0.504931 0.000000
v -0.254111 0.353690 0.000000
v -0.265439 0.360270 0.000000
v -0.254111 0.508573 0.000000
v -0.259816 0.512598 0.000000
v -0.355322 0.353987 0.000000
v -0.660178 0.370863 0.000000
v -0.329155 0.407744 0.000000
v -0.369451 0.370863 0.000000
v -0.380580 0.353987 0.000000
v -0.345129 0.407744 0.000000
v -0.677696 0.353987 0.000000
v -0.671926 0.359546 0.000000
v -1.049242 0.353987 0.000000
v -1.049242 0.359546 0.000000
v -0.447652 0.040784 0.000000
v -0.455108 0.046269 0.000000
v -0.504181 -0.044509 0.000000
v -0.511868 -0.040559 0.000000
v -0.580031 0.013401 0.000000
v -0.488979 0.013401 0.000000
v -0.500108 -0.004473 0.000000
v -0.632751 -0.004473 0.000000
v -0.626981 0.001414 0.000000
v -0.772449 -0.004473 0.000000
v -0.772449 0.001414 0.000000
v -0.157188 -0.507769 -0.000000
v -0.156421 -0.478874 -0.000000
v -0.205110 -0.459137 -0.000000
v -0.204343 -0.430242 -0.000000
v -0.204642 -0.441503 -0.000000
v -0.238066 -0.397229 -0.000000
v -0.238365 -0.405650 -0.000000
v -0.425494 -0.397229 -0.000000
v -0.425793 -0.405650 -0.000000
v -0.734872 -0.382828 0.000000
v -0.782241 -0.395640 0.000000
v -0.605449 -0.578950 0.000000
v -0.640534 -0.611828 0.000000
v -0.698067 -0.326885 0.000000
v -0.739549 -0.327920 0.000000
v -0.715845 -0.327329 0.000000
v -0.641389 -0.238556 0.000000
v -0.651806 -0.229430 0.000000
v -0.514911 -0.578950 0.000000
v -0.549996 -0.611828 0.000000
v -0.530644 -0.593693 0.000000
v -0.423637 -0.578950 0.000000
v -0.422440 -0.593693 0.000000
v -1.177338 -0.414657 0.000000
v -1.195312 -0.398134 0.000000
v -0.851554 -0.453365 0.000000
v -0.888972 -0.398134 0.000000
v -0.868306 -0.398134 0.000000
v -0.877777 -0.414657 0.000000
v -0.735619 -0.610453 0.000000
v -0.732125 -0.607179 0.000000
v -0.839286 -0.451524 0.000000
v -0.834569 -0.450249 0.000000
v 0.171813 0.541230 0.000000
v 0.118140 0.562246 -0.000000
v 0.170279 0.481993 0.000000
v 0.123763 0.612794 -0.000000
v 0.000000 0.562246 -0.000000
v 0.000000 0.612794 -0.000000
v 0.170873 0.504931 0.000000
v 0.254111 0.353690 0.000000
v 0.265439 0.360270 0.000000
v 0.254111 0.508573 0.000000
v 0.259816 0.512598 0.000000
v 0.355322 0.353987 0.000000
v 0.660178 0.370863 0.000000
v 0.329155 0.407744 0.000000
v 0.369451 0.370863 0.000000
v 0.380580 0.353987 0.000000
v 0.345129 0.407744 0.000000
v 0.677696 0.353987 0.000000
v 0.671926 0.359546 0.000000
v 1.049242 0.353987 0.000000
v 1.049242 0.359546 0.000000
v 0.447652 0.040784 0.000000
v 0.455108 0.046269 0.000000
v 0.504181 -0.044509 0.000000
v 0.511868 -0.040559 0.000000
v 0.580031 0.013401 0.000000
v 0.488979 0.013401 0.000000
v 0.500108 -0.004473 0.000000
v 0.632751 -0.004473 0.000000
v 0.626981 0.001414 0.000000
v 0.772449 -0.004473 0.000000
v 0.772449 0.001414 0.000000
v 0.157188 -0.507769 -0.000000
v 0.156421 -0.478874 -0.000000
v 0.000000 -0.507769 -0.000000
v 0.000000 -0.478874 -0.000000
v 0.205110 -0.459137 -0.000000
v 0.204343 -0.430242 -0.000000
v 0.204642 -0.441503 -0.000000
v 0.238066 -0.397229 -0.000000
v 0.238365 -0.405650 -0.000000
v 0.425494 -0.397229 -0.000000
v 0.425793 -0.405650 -0.000000
v 0.734872 -0.382828 0.000000
v 0.782241 -0.395640 0.000000
v 0.605449 -0.578950 0.000000
v 0.640534 -0.611828 0.000000
v 0.698067 -0.326885 0.000000
v 0.739549 -0.327920 0.000000
v 0.715845 -0.327329 0.000000
v 0.641389 -0.238556 0.000000
v 0.651806 -0.229430 0.000000
v 0.514911 -0.578950 0.000000
v 0.549996 -0.611828 0.000000
v 0.530644 -0.593693 0.000000
v 0.423637 -0.578950 0.000000
v 0.422440 -0.593693 0.000000
v 1.177338 -0.414657 0.000000
v 1.195312 -0.398134 0.000000
v 0.851554 -0.453365 0.000000
v 0.888972 -0.398134 0.000000
v 0.868306 -0.398134 0.000000
v 0.877777 -0.414657 0.000000
v 0.735619 -0.610453 0.000000
v 0.732125 -0.607179 0.000000
v 0.839286 -0.451524 0.000000
v 0.834569 -0.450249 0.000000
vt 1.000000 0.000000
vt 0.500000 1.000000
vt 0.500000 0.000000
vt 1.000000 0.387222
vt 1.000000 1.000000
vt 1.000000 0.000000
vt 1.000000 0.387222
vt 1.000000 0.387222
vt 1.000000 0.387222
vt 1.000000 0.387222
vt 1.000000 0.387222
vt 1.000000 0.000000
vt 1.000000 0.000000
vt 1.000000 0.387222
vt 1.000000 0.387222
vt 1.000000 0.387222
vt 1.000000 0.000000
vt 1.000000 0.387222
vt 1.000000 0.387222
vt 1.000000 0.387222
vt 1.000000 0.387222
vt 1.000000 0.387222
vt 0.500000 0.000000
vt 1.000000 1.000000
vt 0.500000 1.000000
vt 1.000000 0.610286
vt 1.000000 0.000000
vt 1.000000 1.000000
vt 1.000000 0.610286
vt 1.000000 1.000000
vt 1.000000 1.000000
vt 1.000000 0.000000
vt 1.000000 0.387222
vt 1.000000 0.387222
vt 1.000000 0.165952
vt 1.000000 0.387222
vt 1.000000 0.000000
vt 1.000000 0.165952
vt 1.000000 0.000000
vt 1.000000 0.000000
vt 1.000000 0.173637
vt 1.000000 0.387222
vt 1.000000 0.000000
vt 1.000000 0.173637
vt 1.000000 0.000000
vt 1.000000 0.387222
vt 1.000000 0.387222
vt 1.000000 0.387222
vt 1.000000 0.387222
vt 1.000000 0.387222
vt 1.000000 0.387222
vt 1.000000 0.000000
vt 1.000000 0.000000
vt 1.000000 1.000000
vt 1.000000 0.387222
vt 1.000000 0.387222
vt 1.000000 0.000000
vt 1.000000 0.387222
vt 1.000000 0.387222
vt 1.000000 0.387222
vt 1.000000 0.000000
vt 1.000000 0.387222
vt 1.000000 0.387222
vt 1.000000 0.387222
vt 1.000000 0.387222
vt 1.000000 0.387222
vt 1.000000 0.000000
vt 1.000000 0.000000
vt 1.000000 0.387222
vt 1.000000 0.387222
vt 1.000000 0.387222
vt 1.000000 0.387222
vt 1.000000 0.387222
vt 1.000000 1.000000
vt 1.000000 0.000000
vt 1.000000 0.000000
vt 1.000000 0.610286
vt 1.000000 1.000000
vt 1.000000 0.610286
vt 1.000000 1.000000
vt 1.000000 1.000000
vt 1.000000 0.387222
vt 1.000000 0.000000
vt 1.000000 0.387222
vt 1.000000 0.387222
vt 1.000000 0.165952
vt 1.000000 0.000000
vt 1.000000 0.165952
vt 1.000000 0.173637
vt 1.000000 0.000000
vt 1.000000 0.000000
vt 1.000000 0.173637
vt 1.000000 0.387222
vt 1.000000 0.000000
vt 1.000000 0.387222
vt 1.000000 0.387222
vt 1.000000 0.387222
vt 1.000000 0.387222
vt 1.000000 0.000000
vt 1.000000 1.000000
vt 1.000000 0.000000
vt 1.000000 0.387222
vt 1.000000 0.387222
vt 1.000000 0.387222
vt 1.000000 0.387222
vt 1.000000 0.000000
vt 1.000000 0.387222
vt 1.000000 0.387222
vt 1.000000 0.387222
vt 1.000000 0.000000
vt 1.000000 0.610286
vt 1.000000 0.000000
vt 1.000000 0.000000
vt 1.000000 0.387222
vt 1.000000 1.000000
vt 1.000000 0.000000
vt 1.000000 0.387222
vt 1.000000 0.387222
vt 1.000000 0.000000
vt 1.000000 0.387222
vt 1.000000 0.387222
vt 1.000000 0.387222
vt 1.000000 0.387222
vt 1.000000 0.610286
vt 1.000000 0.000000
vt 1.000000 0.387222
vt 1.000000 0.000000
vt 1.000000 0.000000
vt 1.000000 0.387222
vt 1.000000 0.387222
vn 0.0000 -0.0000 -1.0000
usemtl Material
s off
f 2/1/1 69/2/1 68/3/1
f 2/1/1 5/4/1 1/5/1
f 3/6/1 7/7/1 5/4/1
f 14/8/1 17/9/1 11/10/1
f 12/11/1 8/12/1 10/13/1
f 16/14/1 19/15/1 17/9/1
f 21/16/1 22/17/1 23/18/1
f 27/19/1 28/20/1 24/21/1
f 27/19/1 30/22/1 28/20/1
f 98/23/1 32/24/1 99/25/1
f 35/26/1 32/24/1 33/27/1
f 34/28/1 37/29/1 36/30/1
f 37/29/1 38/31/1 36/30/1
f 40/32/1 43/33/1 41/34/1
f 46/35/1 40/32/1 45/36/1
f 44/37/1 48/38/1 47/39/1
f 42/40/1 51/41/1 50/42/1
f 49/43/1 53/44/1 51/41/1
f 63/45/1 60/46/1 62/47/1
f 57/48/1 54/49/1 55/50/1
f 59/51/1 57/48/1 58/52/1
f 69/2/1 65/53/1 68/3/1
f 64/54/1 70/55/1 65/53/1
f 72/56/1 66/57/1 70/55/1
f 76/58/1 82/59/1 79/60/1
f 73/61/1 74/62/1 77/63/1
f 84/64/1 81/65/1 82/59/1
f 86/66/1 87/67/1 85/68/1
f 89/69/1 92/70/1 91/71/1
f 95/72/1 92/70/1 93/73/1
f 98/23/1 97/74/1 96/75/1
f 100/76/1 97/74/1 102/77/1
f 101/78/1 104/79/1 102/77/1
f 105/80/1 104/79/1 103/81/1
f 110/82/1 107/83/1 108/84/1
f 112/85/1 107/83/1 113/86/1
f 111/87/1 115/88/1 113/86/1
f 118/89/1 116/90/1 109/91/1
f 120/92/1 116/90/1 118/89/1
f 127/93/1 130/94/1 129/95/1
f 124/96/1 121/97/1 126/98/1
f 125/99/1 126/98/1 129/95/1
f 2/1/1 4/100/1 69/2/1
f 1/5/1 4/100/1 2/1/1
f 2/1/1 3/6/1 5/4/1
f 3/6/1 6/101/1 7/7/1
f 11/10/1 13/102/1 14/8/1
f 14/8/1 16/14/1 17/9/1
f 12/11/1 9/103/1 8/12/1
f 10/13/1 14/8/1 13/102/1
f 13/102/1 15/104/1 10/13/1
f 15/104/1 12/11/1 10/13/1
f 16/14/1 18/105/1 19/15/1
f 21/16/1 20/106/1 22/17/1
f 24/21/1 25/107/1 26/108/1
f 26/108/1 27/19/1 24/21/1
f 27/19/1 29/109/1 30/22/1
f 98/23/1 31/110/1 32/24/1
f 34/28/1 32/24/1 35/26/1
f 32/24/1 31/110/1 33/27/1
f 34/28/1 35/26/1 37/29/1
f 37/29/1 39/111/1 38/31/1
f 40/32/1 42/40/1 43/33/1
f 44/37/1 40/32/1 46/35/1
f 40/32/1 41/34/1 45/36/1
f 44/37/1 46/35/1 48/38/1
f 50/42/1 43/33/1 42/40/1
f 42/40/1 49/43/1 51/41/1
f 49/43/1 52/112/1 53/44/1
f 63/45/1 61/113/1 60/46/1
f 57/48/1 59/51/1 54/49/1
f 63/45/1 62/47/1 58/52/1
f 62/47/1 56/114/1 59/51/1
f 58/52/1 62/47/1 59/51/1
f 69/2/1 67/115/1 65/53/1
f 65/53/1 67/115/1 64/54/1
f 70/55/1 66/57/1 65/53/1
f 72/56/1 71/116/1 66/57/1
f 79/60/1 78/117/1 76/58/1
f 82/59/1 81/65/1 79/60/1
f 77/63/1 80/118/1 75/119/1
f 80/118/1 78/117/1 75/119/1
f 78/117/1 79/60/1 75/119/1
f 75/119/1 73/61/1 77/63/1
f 84/64/1 83/120/1 81/65/1
f 86/66/1 88/121/1 87/67/1
f 91/71/1 90/122/1 89/69/1
f 89/69/1 93/73/1 92/70/1
f 95/72/1 94/123/1 92/70/1
f 98/23/1 99/25/1 97/74/1
f 96/75/1 97/74/1 100/76/1
f 97/74/1 101/78/1 102/77/1
f 101/78/1 103/81/1 104/79/1
f 105/80/1 106/124/1 104/79/1
f 110/82/1 109/91/1 107/83/1
f 108/84/1 107/83/1 112/85/1
f 107/83/1 111/87/1 113/86/1
f 111/87/1 114/125/1 115/88/1
f 109/91/1 110/82/1 117/126/1
f 117/126/1 118/89/1 109/91/1
f 120/92/1 119/127/1 116/90/1
f 127/93/1 128/128/1 130/94/1
f 124/96/1 122/129/1 121/97/1
f 123/130/1 129/95/1 126/98/1
f 129/95/1 130/94/1 125/99/1
f 125/99/1 124/96/1 126/98/1
