# Blender v2.82 (sub 7) OBJ File: 'ufo.blend'
# www.blender.org
mtllib ufo2.mtl
o Low_poly_UFO.002
v 1.329081 0.031894 -0.293959
v 0.962346 0.031894 -0.342968
v 0.945839 0.199495 -0.342968
v 1.305527 0.271041 -0.293959
v 0.890384 0.382303 -0.342967
v 1.229204 0.522647 -0.293959
v 0.800332 0.550780 -0.342968
v 1.105261 0.754527 -0.293959
v 0.679141 0.698452 -0.342968
v 0.938462 0.957773 -0.293959
v 0.531470 0.819642 -0.342968
v 0.735217 1.124572 -0.293959
v 0.362993 0.909695 -0.342967
v 0.503337 1.248515 -0.293958
v 0.180185 0.965150 -0.342967
v 0.251731 1.324838 -0.293958
v 0.012585 0.981657 -0.342967
v 0.012585 1.348392 -0.293958
v 0.012584 -1.329630 -0.293959
v 0.012584 -0.962895 -0.342968
v 0.180185 -0.946388 -0.342968
v 0.251732 -1.306076 -0.293959
v 0.362993 -0.890933 -0.342968
v 0.503337 -1.229752 -0.293959
v 0.531470 -0.800880 -0.342968
v 0.735218 -1.105809 -0.293959
v 0.679142 -0.679689 -0.342968
v 0.938463 -0.939010 -0.293959
v 0.800332 -0.532018 -0.342968
v 1.105262 -0.735765 -0.293959
v 0.890385 -0.363540 -0.342968
v 1.229204 -0.503884 -0.293959
v 0.945839 -0.180732 -0.342968
v 1.305528 -0.252278 -0.293959
v 0.962346 -0.013134 -0.342968
v 1.329081 -0.013134 -0.293959
v -1.348941 0.031895 -0.293959
v -1.325387 0.271042 -0.293959
v -0.965698 0.199495 -0.342968
v -0.982206 0.031895 -0.342968
v -1.249064 0.522648 -0.293959
v -0.910244 0.382304 -0.342967
v -1.125121 0.754528 -0.293959
v -0.820191 0.550781 -0.342968
v -0.958322 0.957773 -0.293959
v -0.699001 0.698452 -0.342968
v -0.755076 1.124572 -0.293959
v -0.551329 0.819643 -0.342968
v -0.523196 1.248515 -0.293958
v -0.382852 0.909695 -0.342967
v -0.271590 1.324839 -0.293958
v -0.200044 0.965150 -0.342967
v -0.032444 1.348392 -0.293958
v -0.032444 0.981657 -0.342967
v -0.032445 -1.329630 -0.293959
v -0.271592 -1.306076 -0.293959
v -0.200045 -0.946388 -0.342968
v -0.032445 -0.962895 -0.342968
v -0.523198 -1.229752 -0.293959
v -0.382854 -0.890933 -0.342968
v -0.755078 -1.105809 -0.293959
v -0.551331 -0.800880 -0.342968
v -0.958323 -0.939009 -0.293959
v -0.699002 -0.679689 -0.342968
v -1.125122 -0.735764 -0.293959
v -0.820192 -0.532017 -0.342968
v -1.249065 -0.503883 -0.293959
v -0.910245 -0.363540 -0.342968
v -1.325388 -0.252277 -0.293959
v -0.965699 -0.180731 -0.342968
v -1.348941 -0.013133 -0.293959
v -0.982206 -0.013134 -0.342968
v 0.958167 -0.013134 -0.311696
v 0.958167 0.031894 -0.311696
v 1.323706 0.031894 -0.262870
v 1.323707 -0.013134 -0.262870
v 0.012585 0.977478 -0.311695
v -0.032444 0.977478 -0.311695
v -0.032444 1.343017 -0.262870
v 0.012585 1.343017 -0.262870
v -1.343566 -0.013133 -0.262870
v -1.343566 0.031895 -0.262870
v -0.978027 0.031895 -0.311696
v -0.978027 -0.013134 -0.311696
v -0.032445 -0.958716 -0.311696
v 0.012584 -0.958716 -0.311696
v 0.012584 -1.324256 -0.262870
v -0.032445 -1.324256 -0.262870
vt 0.531471 0.412251
vt 0.561675 0.425765
vt 0.533174 0.431185
vt 0.539044 0.451139
vt 0.572951 0.453650
vt 0.548694 0.469564
vt 0.561753 0.485753
vt 0.582439 0.465412
vt 0.577719 0.499083
vt 0.594040 0.475097
vt 0.595979 0.509042
vt 0.607307 0.482333
vt 0.615831 0.515247
vt 0.621731 0.486842
vt 0.634733 0.517270
vt 0.636519 0.305427
vt 0.623006 0.335631
vt 0.617586 0.307131
vt 0.597632 0.313001
vt 0.608508 0.339896
vt 0.579206 0.322650
vt 0.595120 0.346907
vt 0.563018 0.335709
vt 0.573673 0.367996
vt 0.549688 0.351676
vt 0.539729 0.369936
vt 0.566437 0.381263
vt 0.533523 0.389788
vt 0.561929 0.395687
vt 0.531501 0.408689
vt 0.743313 0.414037
vt 0.712885 0.427040
vt 0.714303 0.413793
vt 0.741291 0.432939
vt 0.708377 0.441463
vt 0.735085 0.452791
vt 0.701141 0.454731
vt 0.711797 0.487018
vt 0.725127 0.471051
vt 0.679694 0.475819
vt 0.691456 0.466331
vt 0.677182 0.509726
vt 0.695608 0.500076
vt 0.651809 0.487095
vt 0.666306 0.482831
vt 0.638295 0.517300
vt 0.657228 0.515596
vt 0.658983 0.307480
vt 0.639836 0.334467
vt 0.640081 0.305457
vt 0.667507 0.340393
vt 0.653083 0.335885
vt 0.697095 0.323644
vt 0.678835 0.313685
vt 0.713061 0.336974
vt 0.680774 0.347629
vt 0.726120 0.353163
vt 0.692375 0.357315
vt 0.735770 0.371588
vt 0.701863 0.369077
vt 0.713139 0.396962
vt 0.708874 0.382464
vt 0.743343 0.410475
vt 0.741640 0.391542
vt 0.266282 0.028579
vt 0.229634 0.033094
vt 0.229634 0.028579
vt 0.266184 0.123985
vt 0.229536 0.119470
vt 0.266184 0.119470
vt 0.181445 0.014514
vt 0.144797 0.010000
vt 0.181445 0.010000
vt 0.144699 0.084318
vt 0.181347 0.088832
vt 0.144699 0.088832
vt 0.010000 0.106938
vt 0.047060 0.108823
vt 0.046751 0.111971
vt 0.139787 0.031695
vt 0.102824 0.034963
vt 0.139242 0.028579
vt 0.010000 0.089362
vt 0.047060 0.091247
vt 0.046751 0.094395
vt 0.139787 0.013115
vt 0.102824 0.016384
vt 0.139242 0.010000
vt 0.010000 0.142091
vt 0.047060 0.143976
vt 0.046751 0.147124
vt 0.139787 0.050274
vt 0.102824 0.053543
vt 0.139242 0.047159
vt 0.010000 0.124514
vt 0.047060 0.126399
vt 0.046751 0.129547
vt 0.139787 0.068854
vt 0.102824 0.072122
vt 0.139242 0.065738
vt 0.560481 0.412496
vt 0.565940 0.440263
vt 0.634978 0.488259
vt 0.636274 0.334437
vt 0.583358 0.356396
vt 0.560511 0.408934
vt 0.638540 0.488289
vt 0.714333 0.410231
vt 0.266282 0.033094
vt 0.229536 0.123985
vt 0.144797 0.014514
vt 0.181347 0.084318
vt 0.010429 0.103804
vt 0.103250 0.038097
vt 0.010429 0.086228
vt 0.103250 0.019518
vt 0.010429 0.138957
vt 0.103250 0.056677
vt 0.010429 0.121381
vt 0.103250 0.075256
vn 0.1324 0.0130 -0.9911
vn 0.1299 0.0258 -0.9912
vn 0.1224 0.0507 -0.9912
vn 0.1101 0.0736 -0.9912
vn 0.0937 0.0937 -0.9912
vn 0.0736 0.1101 -0.9912
vn 0.0507 0.1224 -0.9912
vn 0.0258 0.1299 -0.9912
vn 0.0130 0.1324 -0.9911
vn 0.0130 -0.1324 -0.9911
vn 0.0258 -0.1299 -0.9912
vn 0.0507 -0.1224 -0.9912
vn 0.0736 -0.1101 -0.9912
vn 0.0937 -0.0937 -0.9912
vn 0.1101 -0.0736 -0.9912
vn 0.1224 -0.0507 -0.9912
vn 0.1299 -0.0258 -0.9912
vn 0.1324 -0.0130 -0.9911
vn -0.1324 0.0130 -0.9911
vn -0.1299 0.0258 -0.9912
vn -0.1224 0.0507 -0.9912
vn -0.1101 0.0736 -0.9912
vn -0.0937 0.0937 -0.9912
vn -0.0736 0.1101 -0.9912
vn -0.0507 0.1224 -0.9912
vn -0.0258 0.1299 -0.9912
vn -0.0130 0.1324 -0.9911
vn -0.0258 -0.1299 -0.9912
vn -0.0130 -0.1324 -0.9911
vn -0.0507 -0.1224 -0.9912
vn -0.0736 -0.1101 -0.9912
vn -0.0937 -0.0937 -0.9912
vn -0.1101 -0.0736 -0.9912
vn -0.1224 -0.0507 -0.9912
vn -0.1299 -0.0258 -0.9912
vn -0.1324 -0.0130 -0.9911
vn 0.1324 0.0000 -0.9912
vn 0.0000 0.1324 -0.9912
vn -0.1324 -0.0000 -0.9912
vn 0.0000 -0.1324 -0.9912
vn -0.0000 1.0000 0.0000
vn 0.0000 -1.0000 0.0000
vn -1.0000 -0.0000 0.0000
vn 1.0000 -0.0000 -0.0000
usemtl UFO_texture.001
s 1
f 1/1/1 3/2/2 4/3/2
f 3/2/2 6/4/3 4/3/2
f 6/4/3 7/5/4 8/6/4
f 7/5/4 10/7/5 8/6/4
f 9/8/5 12/9/6 10/7/5
f 11/10/6 14/11/7 12/9/6
f 13/12/7 16/13/8 14/11/7
f 15/14/8 18/15/9 16/13/8
f 19/16/10 21/17/11 22/18/11
f 21/17/11 24/19/12 22/18/11
f 23/20/12 26/21/13 24/19/12
f 25/22/13 28/23/14 26/21/13
f 28/23/14 29/24/15 30/25/15
f 29/24/15 32/26/16 30/25/15
f 31/27/16 34/28/17 32/26/16
f 33/29/17 36/30/18 34/28/17
f 37/31/19 39/32/20 40/33/19
f 38/34/20 42/35/21 39/32/20
f 41/36/21 44/37/22 42/35/21
f 45/38/23 44/37/22 43/39/22
f 45/38/23 48/40/24 46/41/23
f 49/42/25 48/40/24 47/43/24
f 49/42/25 52/44/26 50/45/25
f 53/46/27 52/44/26 51/47/26
f 56/48/28 58/49/29 55/50/29
f 56/48/28 60/51/30 57/52/28
f 61/53/31 60/51/30 59/54/30
f 63/55/32 62/56/31 61/53/31
f 65/57/33 64/58/32 63/55/32
f 67/59/34 66/60/33 65/57/33
f 67/59/34 70/61/35 68/62/34
f 71/63/36 70/61/35 69/64/35
f 73/65/37 75/66/37 76/67/37
f 78/68/38 80/69/38 77/70/38
f 82/71/39 84/72/39 81/73/39
f 86/74/40 88/75/40 85/76/40
f 35/77/41 76/78/41 36/79/41
f 2/80/42 75/81/42 74/82/42
f 17/83/43 80/84/43 18/85/43
f 54/86/44 79/87/44 78/88/44
f 58/89/44 88/90/44 55/91/44
f 20/92/43 87/93/43 86/94/43
f 40/95/42 82/96/42 37/97/42
f 72/98/41 81/99/41 84/100/41
f 1/1/1 2/101/1 3/2/2
f 3/2/2 5/102/3 6/4/3
f 6/4/3 5/102/3 7/5/4
f 7/5/4 9/8/5 10/7/5
f 9/8/5 11/10/6 12/9/6
f 11/10/6 13/12/7 14/11/7
f 13/12/7 15/14/8 16/13/8
f 15/14/8 17/103/9 18/15/9
f 19/16/10 20/104/10 21/17/11
f 21/17/11 23/20/12 24/19/12
f 23/20/12 25/22/13 26/21/13
f 25/22/13 27/105/14 28/23/14
f 28/23/14 27/105/14 29/24/15
f 29/24/15 31/27/16 32/26/16
f 31/27/16 33/29/17 34/28/17
f 33/29/17 35/106/18 36/30/18
f 37/31/19 38/34/20 39/32/20
f 38/34/20 41/36/21 42/35/21
f 41/36/21 43/39/22 44/37/22
f 45/38/23 46/41/23 44/37/22
f 45/38/23 47/43/24 48/40/24
f 49/42/25 50/45/25 48/40/24
f 49/42/25 51/47/26 52/44/26
f 53/46/27 54/107/27 52/44/26
f 56/48/28 57/52/28 58/49/29
f 56/48/28 59/54/30 60/51/30
f 61/53/31 62/56/31 60/51/30
f 63/55/32 64/58/32 62/56/31
f 65/57/33 66/60/33 64/58/32
f 67/59/34 68/62/34 66/60/33
f 67/59/34 69/64/35 70/61/35
f 71/63/36 72/108/36 70/61/35
f 73/65/37 74/109/37 75/66/37
f 78/68/38 79/110/38 80/69/38
f 82/71/39 83/111/39 84/72/39
f 86/74/40 87/112/40 88/75/40
f 35/77/41 73/113/41 76/78/41
f 2/80/42 1/114/42 75/81/42
f 17/83/43 77/115/43 80/84/43
f 54/86/44 53/116/44 79/87/44
f 58/89/44 85/117/44 88/90/44
f 20/92/43 19/118/43 87/93/43
f 40/95/42 83/119/42 82/96/42
f 72/98/41 71/120/41 81/99/41
